<?xml version="1.0" encoding="UTF-8" standalone="no"?>
<!DOCTYPE svg PUBLIC "-//W3C//DTD SVG 1.1//EN"
 "http://www.w3.org/Graphics/SVG/1.1/DTD/svg11.dtd">
<!-- Generated by graphviz version 2.44.0 ()
 -->
<!-- Pages: 1 -->
<svg width="554pt" height="125pt"
 viewBox="0.00 0.00 553.69 125.00" xmlns="http://www.w3.org/2000/svg" xmlns:xlink="http://www.w3.org/1999/xlink">
<g id="graph0" class="graph" transform="scale(1 1) rotate(0) translate(4 121)">
<polygon fill="white" stroke="transparent" points="-4,4 -4,-121 549.69,-121 549.69,4 -4,4"/>
<!-- client -->
<g id="node1" class="node">
<title>client</title>
<ellipse fill="#848484" stroke="#585858" cx="38.35" cy="-72" rx="38.19" ry="18"/>
<text text-anchor="middle" x="38.35" y="-68.3" font-family="Times,serif" font-size="14.00" fill="white">Client</text>
</g>
<!-- gateway -->
<g id="node2" class="node">
<title>gateway</title>
<path fill="#782b90" stroke="#585858" d="M208.69,-90C208.69,-90 124.69,-90 124.69,-90 118.69,-90 112.69,-84 112.69,-78 112.69,-78 112.69,-66 112.69,-66 112.69,-60 118.69,-54 124.69,-54 124.69,-54 208.69,-54 208.69,-54 214.69,-54 220.69,-60 220.69,-66 220.69,-66 220.69,-78 220.69,-78 220.69,-84 214.69,-90 208.69,-90"/>
<text text-anchor="middle" x="166.69" y="-68.3" font-family="Times,serif" font-size="14.00" fill="white">API Gateway</text>
</g>
<!-- client&#45;&gt;gateway -->
<g id="edge1" class="edge">
<title>client&#45;&gt;gateway</title>
<path fill="none" stroke="black" d="M76.91,-72C84.96,-72 93.68,-72 102.41,-72"/>
<polygon fill="black" stroke="black" points="102.61,-75.5 112.61,-72 102.61,-68.5 102.61,-75.5"/>
</g>
<!-- inventory -->
<g id="node3" class="node">
<title>inventory</title>
<path fill="#782b90" stroke="#585858" d="M385.69,-117C385.69,-117 268.69,-117 268.69,-117 262.69,-117 256.69,-111 256.69,-105 256.69,-105 256.69,-93 256.69,-93 256.69,-87 262.69,-81 268.69,-81 268.69,-81 385.69,-81 385.69,-81 391.69,-81 397.69,-87 397.69,-93 397.69,-93 397.69,-105 397.69,-105 397.69,-111 391.69,-117 385.69,-117"/>
<text text-anchor="middle" x="327.19" y="-95.3" font-family="Times,serif" font-size="14.00" fill="white">Inventory service</text>
</g>
<!-- gateway&#45;&gt;inventory -->
<g id="edge4" class="edge">
<title>gateway&#45;&gt;inventory</title>
<path fill="none" stroke="black" d="M220.91,-81.07C229.12,-82.46 237.75,-83.93 246.39,-85.41"/>
<polygon fill="black" stroke="black" points="246.06,-88.9 256.51,-87.13 247.24,-82 246.06,-88.9"/>
</g>
<!-- rating -->
<g id="node4" class="node">
<title>rating</title>
<path fill="#782b90" stroke="#585858" d="M374.69,-63C374.69,-63 279.69,-63 279.69,-63 273.69,-63 267.69,-57 267.69,-51 267.69,-51 267.69,-39 267.69,-39 267.69,-33 273.69,-27 279.69,-27 279.69,-27 374.69,-27 374.69,-27 380.69,-27 386.69,-33 386.69,-39 386.69,-39 386.69,-51 386.69,-51 386.69,-57 380.69,-63 374.69,-63"/>
<text text-anchor="middle" x="327.19" y="-41.3" font-family="Times,serif" font-size="14.00" fill="white">Rating service</text>
</g>
<!-- gateway&#45;&gt;rating -->
<g id="edge3" class="edge">
<title>gateway&#45;&gt;rating</title>
<path fill="none" stroke="black" d="M220.91,-62.93C232.65,-60.94 245.24,-58.79 257.48,-56.7"/>
<polygon fill="black" stroke="black" points="258.4,-60.1 267.67,-54.97 257.22,-53.2 258.4,-60.1"/>
</g>
<!-- gatewaydb -->
<g id="node5" class="node">
<title>gatewaydb</title>
<path fill="#008bb9" stroke="#585858" d="M219.19,-32.73C219.19,-34.53 195.66,-36 166.69,-36 137.72,-36 114.19,-34.53 114.19,-32.73 114.19,-32.73 114.19,-3.27 114.19,-3.27 114.19,-1.47 137.72,0 166.69,0 195.66,0 219.19,-1.47 219.19,-3.27 219.19,-3.27 219.19,-32.73 219.19,-32.73"/>
<path fill="none" stroke="#585858" d="M219.19,-32.73C219.19,-30.92 195.66,-29.45 166.69,-29.45 137.72,-29.45 114.19,-30.92 114.19,-32.73"/>
<text text-anchor="middle" x="166.69" y="-14.3" font-family="Times,serif" font-size="14.00" fill="white">Gateway DB</text>
</g>
<!-- gateway&#45;&gt;gatewaydb -->
<g id="edge2" class="edge">
<title>gateway&#45;&gt;gatewaydb</title>
<path fill="none" stroke="black" d="M166.69,-53.79C166.69,-51.31 166.69,-48.83 166.69,-46.34"/>
<polygon fill="black" stroke="black" points="170.19,-46.14 166.69,-36.14 163.19,-46.14 170.19,-46.14"/>
</g>
<!-- inventorydb -->
<g id="node6" class="node">
<title>inventorydb</title>
<path fill="#008bb9" stroke="#585858" d="M545.69,-113.73C545.69,-115.53 520.59,-117 489.69,-117 458.79,-117 433.69,-115.53 433.69,-113.73 433.69,-113.73 433.69,-84.27 433.69,-84.27 433.69,-82.47 458.79,-81 489.69,-81 520.59,-81 545.69,-82.47 545.69,-84.27 545.69,-84.27 545.69,-113.73 545.69,-113.73"/>
<path fill="none" stroke="#585858" d="M545.69,-113.73C545.69,-111.92 520.59,-110.45 489.69,-110.45 458.79,-110.45 433.69,-111.92 433.69,-113.73"/>
<text text-anchor="middle" x="489.69" y="-95.3" font-family="Times,serif" font-size="14.00" fill="white">Inventory DB</text>
</g>
<!-- inventory&#45;&gt;inventorydb -->
<g id="edge5" class="edge">
<title>inventory&#45;&gt;inventorydb</title>
<path fill="none" stroke="black" d="M398.12,-99C406.53,-99 415.09,-99 423.43,-99"/>
<polygon fill="black" stroke="black" points="423.47,-102.5 433.47,-99 423.47,-95.5 423.47,-102.5"/>
</g>
<!-- ratingdb -->
<g id="node7" class="node">
<title>ratingdb</title>
<path fill="#008bb9" stroke="#585858" d="M534.69,-59.73C534.69,-61.53 514.52,-63 489.69,-63 464.86,-63 444.69,-61.53 444.69,-59.73 444.69,-59.73 444.69,-30.27 444.69,-30.27 444.69,-28.47 464.86,-27 489.69,-27 514.52,-27 534.69,-28.47 534.69,-30.27 534.69,-30.27 534.69,-59.73 534.69,-59.73"/>
<path fill="none" stroke="#585858" d="M534.69,-59.73C534.69,-57.92 514.52,-56.45 489.69,-56.45 464.86,-56.45 444.69,-57.92 444.69,-59.73"/>
<text text-anchor="middle" x="489.69" y="-41.3" font-family="Times,serif" font-size="14.00" fill="white">Rating DB</text>
</g>
<!-- rating&#45;&gt;ratingdb -->
<g id="edge6" class="edge">
<title>rating&#45;&gt;ratingdb</title>
<path fill="none" stroke="black" d="M387.05,-45C402.53,-45 419.16,-45 434.39,-45"/>
<polygon fill="black" stroke="black" points="434.68,-48.5 444.68,-45 434.68,-41.5 434.68,-48.5"/>
</g>
</g>
</svg>
