<?xml version="1.0" encoding="UTF-8" standalone="no"?>
<!DOCTYPE svg PUBLIC "-//W3C//DTD SVG 1.1//EN"
 "http://www.w3.org/Graphics/SVG/1.1/DTD/svg11.dtd">
<!-- Generated by graphviz version 2.40.1 (0)
 -->
<!-- Title: %3 Pages: 1 -->
<svg width="651pt" height="98pt"
 viewBox="0.00 0.00 650.89 98.00" xmlns="http://www.w3.org/2000/svg" xmlns:xlink="http://www.w3.org/1999/xlink">
<g id="graph0" class="graph" transform="scale(1 1) rotate(0) translate(4 94)">
<title>%3</title>
<polygon fill="#ffffff" stroke="transparent" points="-4,4 -4,-94 646.887,-94 646.887,4 -4,4"/>
<!-- webclient -->
<g id="node1" class="node">
<title>webclient</title>
<ellipse fill="#848484" stroke="#585858" cx="73.4435" cy="-72" rx="61.99" ry="18"/>
<text text-anchor="middle" x="73.4435" y="-68.3" font-family="Times,serif" font-size="14.00" fill="#ffffff">Web Client</text>
</g>
<!-- webgateway -->
<g id="node3" class="node">
<title>webgateway</title>
<path fill="#782b90" stroke="#585858" d="M293.887,-90C293.887,-90 203.887,-90 203.887,-90 197.887,-90 191.887,-84 191.887,-78 191.887,-78 191.887,-66 191.887,-66 191.887,-60 197.887,-54 203.887,-54 203.887,-54 293.887,-54 293.887,-54 299.887,-54 305.887,-60 305.887,-66 305.887,-66 305.887,-78 305.887,-78 305.887,-84 299.887,-90 293.887,-90"/>
<text text-anchor="middle" x="248.887" y="-68.3" font-family="Times,serif" font-size="14.00" fill="#ffffff">Web Gateway</text>
</g>
<!-- webclient&#45;&gt;webgateway -->
<g id="edge1" class="edge">
<title>webclient&#45;&gt;webgateway</title>
<path fill="none" stroke="#000000" d="M135.2983,-72C150.2075,-72 166.2115,-72 181.3651,-72"/>
<polygon fill="#000000" stroke="#000000" points="181.6963,-75.5001 191.6962,-72 181.6962,-68.5001 181.6963,-75.5001"/>
</g>
<!-- mobileclient -->
<g id="node2" class="node">
<title>mobileclient</title>
<ellipse fill="#848484" stroke="#585858" cx="73.4435" cy="-18" rx="73.387" ry="18"/>
<text text-anchor="middle" x="73.4435" y="-14.3" font-family="Times,serif" font-size="14.00" fill="#ffffff">Mobile Client</text>
</g>
<!-- mobilegateway -->
<g id="node4" class="node">
<title>mobilegateway</title>
<path fill="#782b90" stroke="#585858" d="M302.887,-36C302.887,-36 194.887,-36 194.887,-36 188.887,-36 182.887,-30 182.887,-24 182.887,-24 182.887,-12 182.887,-12 182.887,-6 188.887,0 194.887,0 194.887,0 302.887,0 302.887,0 308.887,0 314.887,-6 314.887,-12 314.887,-12 314.887,-24 314.887,-24 314.887,-30 308.887,-36 302.887,-36"/>
<text text-anchor="middle" x="248.887" y="-14.3" font-family="Times,serif" font-size="14.00" fill="#ffffff">Mobile Gateway</text>
</g>
<!-- mobileclient&#45;&gt;mobilegateway -->
<g id="edge2" class="edge">
<title>mobileclient&#45;&gt;mobilegateway</title>
<path fill="none" stroke="#000000" d="M147.0847,-18C155.4848,-18 164.0617,-18 172.4965,-18"/>
<polygon fill="#000000" stroke="#000000" points="172.6932,-21.5001 182.6931,-18 172.6931,-14.5001 172.6932,-21.5001"/>
</g>
<!-- inventory -->
<g id="node5" class="node">
<title>inventory</title>
<path fill="#782b90" stroke="#585858" d="M481.887,-90C481.887,-90 362.887,-90 362.887,-90 356.887,-90 350.887,-84 350.887,-78 350.887,-78 350.887,-66 350.887,-66 350.887,-60 356.887,-54 362.887,-54 362.887,-54 481.887,-54 481.887,-54 487.887,-54 493.887,-60 493.887,-66 493.887,-66 493.887,-78 493.887,-78 493.887,-84 487.887,-90 481.887,-90"/>
<text text-anchor="middle" x="422.387" y="-68.3" font-family="Times,serif" font-size="14.00" fill="#ffffff">Inventory service</text>
</g>
<!-- webgateway&#45;&gt;inventory -->
<g id="edge4" class="edge">
<title>webgateway&#45;&gt;inventory</title>
<path fill="none" stroke="#000000" d="M306.1782,-72C317.1714,-72 328.8808,-72 340.4746,-72"/>
<polygon fill="#000000" stroke="#000000" points="340.6125,-75.5001 350.6125,-72 340.6125,-68.5001 340.6125,-75.5001"/>
</g>
<!-- rating -->
<g id="node6" class="node">
<title>rating</title>
<path fill="#782b90" stroke="#585858" d="M470.387,-36C470.387,-36 374.387,-36 374.387,-36 368.387,-36 362.387,-30 362.387,-24 362.387,-24 362.387,-12 362.387,-12 362.387,-6 368.387,0 374.387,0 374.387,0 470.387,0 470.387,0 476.387,0 482.387,-6 482.387,-12 482.387,-12 482.387,-24 482.387,-24 482.387,-30 476.387,-36 470.387,-36"/>
<text text-anchor="middle" x="422.387" y="-14.3" font-family="Times,serif" font-size="14.00" fill="#ffffff">Rating service</text>
</g>
<!-- webgateway&#45;&gt;rating -->
<g id="edge3" class="edge">
<title>webgateway&#45;&gt;rating</title>
<path fill="none" stroke="#000000" d="M306.1782,-54.1687C321.627,-49.3605 338.4902,-44.112 354.4593,-39.1417"/>
<polygon fill="#000000" stroke="#000000" points="355.7581,-42.4032 364.2662,-36.0895 353.6778,-35.7194 355.7581,-42.4032"/>
</g>
<!-- mobilegateway&#45;&gt;inventory -->
<g id="edge6" class="edge">
<title>mobilegateway&#45;&gt;inventory</title>
<path fill="none" stroke="#000000" d="M307.1426,-36.1314C322.3877,-40.8763 338.9535,-46.0322 354.6464,-50.9165"/>
<polygon fill="#000000" stroke="#000000" points="353.6967,-54.2864 364.2851,-53.9164 355.777,-47.6027 353.6967,-54.2864"/>
</g>
<!-- mobilegateway&#45;&gt;rating -->
<g id="edge5" class="edge">
<title>mobilegateway&#45;&gt;rating</title>
<path fill="none" stroke="#000000" d="M314.9748,-18C327.0949,-18 339.7863,-18 352.026,-18"/>
<polygon fill="#000000" stroke="#000000" points="352.1787,-21.5001 362.1787,-18 352.1787,-14.5001 352.1787,-21.5001"/>
</g>
<!-- inventorydb -->
<g id="node7" class="node">
<title>inventorydb</title>
<path fill="#008bb9" stroke="#585858" d="M642.887,-86.7273C642.887,-88.5331 617.5628,-90 586.387,-90 555.2112,-90 529.887,-88.5331 529.887,-86.7273 529.887,-86.7273 529.887,-57.2727 529.887,-57.2727 529.887,-55.4669 555.2112,-54 586.387,-54 617.5628,-54 642.887,-55.4669 642.887,-57.2727 642.887,-57.2727 642.887,-86.7273 642.887,-86.7273"/>
<path fill="none" stroke="#585858" d="M642.887,-86.7273C642.887,-84.9214 617.5628,-83.4545 586.387,-83.4545 555.2112,-83.4545 529.887,-84.9214 529.887,-86.7273"/>
<text text-anchor="middle" x="586.387" y="-68.3" font-family="Times,serif" font-size="14.00" fill="#ffffff">Inventory DB</text>
</g>
<!-- inventory&#45;&gt;inventorydb -->
<g id="edge7" class="edge">
<title>inventory&#45;&gt;inventorydb</title>
<path fill="none" stroke="#000000" d="M494.3198,-72C502.7634,-72 511.3517,-72 519.7191,-72"/>
<polygon fill="#000000" stroke="#000000" points="519.7914,-75.5001 529.7914,-72 519.7914,-68.5001 519.7914,-75.5001"/>
</g>
<!-- ratingdb -->
<g id="node8" class="node">
<title>ratingdb</title>
<path fill="#008bb9" stroke="#585858" d="M631.387,-32.7273C631.387,-34.5331 611.2172,-36 586.387,-36 561.5567,-36 541.387,-34.5331 541.387,-32.7273 541.387,-32.7273 541.387,-3.2727 541.387,-3.2727 541.387,-1.4669 561.5567,0 586.387,0 611.2172,0 631.387,-1.4669 631.387,-3.2727 631.387,-3.2727 631.387,-32.7273 631.387,-32.7273"/>
<path fill="none" stroke="#585858" d="M631.387,-32.7273C631.387,-30.9214 611.2172,-29.4545 586.387,-29.4545 561.5567,-29.4545 541.387,-30.9214 541.387,-32.7273"/>
<text text-anchor="middle" x="586.387" y="-14.3" font-family="Times,serif" font-size="14.00" fill="#ffffff">Rating DB</text>
</g>
<!-- rating&#45;&gt;ratingdb -->
<g id="edge8" class="edge">
<title>rating&#45;&gt;ratingdb</title>
<path fill="none" stroke="#000000" d="M482.5233,-18C498.4213,-18 515.5021,-18 531.1281,-18"/>
<polygon fill="#000000" stroke="#000000" points="531.1595,-21.5001 541.1595,-18 531.1595,-14.5001 531.1595,-21.5001"/>
</g>
</g>
</svg>
