<?xml version="1.0" encoding="UTF-8" standalone="no"?>
<!DOCTYPE svg PUBLIC "-//W3C//DTD SVG 1.1//EN"
 "http://www.w3.org/Graphics/SVG/1.1/DTD/svg11.dtd">
<!-- Generated by graphviz version 2.42.3 ()
 -->
<!-- Title: %3 Pages: 1 -->
<svg width="648pt" height="98pt"
 viewBox="0.00 0.00 647.89 98.00" xmlns="http://www.w3.org/2000/svg" xmlns:xlink="http://www.w3.org/1999/xlink">
<g id="graph0" class="graph" transform="scale(1 1) rotate(0) translate(4 94)">
<title>%3</title>
<polygon fill="white" stroke="transparent" points="-4,4 -4,-94 643.89,-94 643.89,4 -4,4"/>
<!-- webclient -->
<g id="node1" class="node">
<title>webclient</title>
<ellipse fill="#848484" stroke="#585858" cx="73.44" cy="-72" rx="61.99" ry="18"/>
<text text-anchor="middle" x="73.44" y="-68.3" font-family="Times,serif" font-size="14.00" fill="white">Web Client</text>
</g>
<!-- webgateway -->
<g id="node3" class="node">
<title>webgateway</title>
<path fill="#782b90" stroke="#585858" d="M293.89,-90C293.89,-90 203.89,-90 203.89,-90 197.89,-90 191.89,-84 191.89,-78 191.89,-78 191.89,-66 191.89,-66 191.89,-60 197.89,-54 203.89,-54 203.89,-54 293.89,-54 293.89,-54 299.89,-54 305.89,-60 305.89,-66 305.89,-66 305.89,-78 305.89,-78 305.89,-84 299.89,-90 293.89,-90"/>
<text text-anchor="middle" x="248.89" y="-68.3" font-family="Times,serif" font-size="14.00" fill="white">Web Gateway</text>
</g>
<!-- webclient&#45;&gt;webgateway -->
<g id="edge1" class="edge">
<title>webclient&#45;&gt;webgateway</title>
<path fill="none" stroke="black" d="M135.59,-72C150.41,-72 166.32,-72 181.38,-72"/>
<polygon fill="black" stroke="black" points="181.64,-75.5 191.64,-72 181.64,-68.5 181.64,-75.5"/>
</g>
<!-- mobileclient -->
<g id="node2" class="node">
<title>mobileclient</title>
<ellipse fill="#848484" stroke="#585858" cx="73.44" cy="-18" rx="73.39" ry="18"/>
<text text-anchor="middle" x="73.44" y="-14.3" font-family="Times,serif" font-size="14.00" fill="white">Mobile Client</text>
</g>
<!-- mobilegateway -->
<g id="node4" class="node">
<title>mobilegateway</title>
<path fill="#782b90" stroke="#585858" d="M302.89,-36C302.89,-36 194.89,-36 194.89,-36 188.89,-36 182.89,-30 182.89,-24 182.89,-24 182.89,-12 182.89,-12 182.89,-6 188.89,0 194.89,0 194.89,0 302.89,0 302.89,0 308.89,0 314.89,-6 314.89,-12 314.89,-12 314.89,-24 314.89,-24 314.89,-30 308.89,-36 302.89,-36"/>
<text text-anchor="middle" x="248.89" y="-14.3" font-family="Times,serif" font-size="14.00" fill="white">Mobile Gateway</text>
</g>
<!-- mobileclient&#45;&gt;mobilegateway -->
<g id="edge2" class="edge">
<title>mobileclient&#45;&gt;mobilegateway</title>
<path fill="none" stroke="black" d="M146.99,-18C155.44,-18 164.07,-18 172.56,-18"/>
<polygon fill="black" stroke="black" points="172.81,-21.5 182.81,-18 172.81,-14.5 172.81,-21.5"/>
</g>
<!-- inventory -->
<g id="node5" class="node">
<title>inventory</title>
<path fill="#782b90" stroke="#585858" d="M479.89,-90C479.89,-90 362.89,-90 362.89,-90 356.89,-90 350.89,-84 350.89,-78 350.89,-78 350.89,-66 350.89,-66 350.89,-60 356.89,-54 362.89,-54 362.89,-54 479.89,-54 479.89,-54 485.89,-54 491.89,-60 491.89,-66 491.89,-66 491.89,-78 491.89,-78 491.89,-84 485.89,-90 479.89,-90"/>
<text text-anchor="middle" x="421.39" y="-68.3" font-family="Times,serif" font-size="14.00" fill="white">Inventory service</text>
</g>
<!-- webgateway&#45;&gt;inventory -->
<g id="edge4" class="edge">
<title>webgateway&#45;&gt;inventory</title>
<path fill="none" stroke="black" d="M306.19,-72C317.22,-72 328.98,-72 340.6,-72"/>
<polygon fill="black" stroke="black" points="340.76,-75.5 350.76,-72 340.76,-68.5 340.76,-75.5"/>
</g>
<!-- rating -->
<g id="node6" class="node">
<title>rating</title>
<path fill="#782b90" stroke="#585858" d="M468.89,-36C468.89,-36 373.89,-36 373.89,-36 367.89,-36 361.89,-30 361.89,-24 361.89,-24 361.89,-12 361.89,-12 361.89,-6 367.89,0 373.89,0 373.89,0 468.89,0 468.89,0 474.89,0 480.89,-6 480.89,-12 480.89,-12 480.89,-24 480.89,-24 480.89,-30 474.89,-36 468.89,-36"/>
<text text-anchor="middle" x="421.39" y="-14.3" font-family="Times,serif" font-size="14.00" fill="white">Rating service</text>
</g>
<!-- webgateway&#45;&gt;rating -->
<g id="edge3" class="edge">
<title>webgateway&#45;&gt;rating</title>
<path fill="none" stroke="black" d="M306.19,-54.17C321.37,-49.36 337.94,-44.11 353.63,-39.14"/>
<polygon fill="black" stroke="black" points="354.79,-42.45 363.27,-36.09 352.68,-35.77 354.79,-42.45"/>
</g>
<!-- mobilegateway&#45;&gt;inventory -->
<g id="edge6" class="edge">
<title>mobilegateway&#45;&gt;inventory</title>
<path fill="none" stroke="black" d="M307.14,-36.13C321.98,-40.83 338.09,-45.93 353.38,-50.78"/>
<polygon fill="black" stroke="black" points="352.7,-54.23 363.29,-53.92 354.81,-47.56 352.7,-54.23"/>
</g>
<!-- mobilegateway&#45;&gt;rating -->
<g id="edge5" class="edge">
<title>mobilegateway&#45;&gt;rating</title>
<path fill="none" stroke="black" d="M315.32,-18C327.16,-18 339.54,-18 351.47,-18"/>
<polygon fill="black" stroke="black" points="351.82,-21.5 361.82,-18 351.82,-14.5 351.82,-21.5"/>
</g>
<!-- inventorydb -->
<g id="node7" class="node">
<title>inventorydb</title>
<path fill="#008bb9" stroke="#585858" d="M639.89,-86.73C639.89,-88.53 614.79,-90 583.89,-90 552.99,-90 527.89,-88.53 527.89,-86.73 527.89,-86.73 527.89,-57.27 527.89,-57.27 527.89,-55.47 552.99,-54 583.89,-54 614.79,-54 639.89,-55.47 639.89,-57.27 639.89,-57.27 639.89,-86.73 639.89,-86.73"/>
<path fill="none" stroke="#585858" d="M639.89,-86.73C639.89,-84.92 614.79,-83.45 583.89,-83.45 552.99,-83.45 527.89,-84.92 527.89,-86.73"/>
<text text-anchor="middle" x="583.89" y="-68.3" font-family="Times,serif" font-size="14.00" fill="white">Inventory DB</text>
</g>
<!-- inventory&#45;&gt;inventorydb -->
<g id="edge7" class="edge">
<title>inventory&#45;&gt;inventorydb</title>
<path fill="none" stroke="black" d="M492.32,-72C500.73,-72 509.29,-72 517.63,-72"/>
<polygon fill="black" stroke="black" points="517.66,-75.5 527.66,-72 517.66,-68.5 517.66,-75.5"/>
</g>
<!-- ratingdb -->
<g id="node8" class="node">
<title>ratingdb</title>
<path fill="#008bb9" stroke="#585858" d="M628.89,-32.73C628.89,-34.53 608.72,-36 583.89,-36 559.06,-36 538.89,-34.53 538.89,-32.73 538.89,-32.73 538.89,-3.27 538.89,-3.27 538.89,-1.47 559.06,0 583.89,0 608.72,0 628.89,-1.47 628.89,-3.27 628.89,-3.27 628.89,-32.73 628.89,-32.73"/>
<path fill="none" stroke="#585858" d="M628.89,-32.73C628.89,-30.92 608.72,-29.45 583.89,-29.45 559.06,-29.45 538.89,-30.92 538.89,-32.73"/>
<text text-anchor="middle" x="583.89" y="-14.3" font-family="Times,serif" font-size="14.00" fill="white">Rating DB</text>
</g>
<!-- rating&#45;&gt;ratingdb -->
<g id="edge8" class="edge">
<title>rating&#45;&gt;ratingdb</title>
<path fill="none" stroke="black" d="M481.24,-18C496.72,-18 513.35,-18 528.58,-18"/>
<polygon fill="black" stroke="black" points="528.88,-21.5 538.88,-18 528.88,-14.5 528.88,-21.5"/>
</g>
</g>
</svg>
