<?xml version="1.0" encoding="UTF-8" standalone="no"?>
<!DOCTYPE svg PUBLIC "-//W3C//DTD SVG 1.1//EN"
 "http://www.w3.org/Graphics/SVG/1.1/DTD/svg11.dtd">
<!-- Generated by graphviz version 2.42.3 ()
 -->
<!-- Title: %3 Pages: 1 -->
<svg width="356pt" height="116pt"
 viewBox="0.00 0.00 356.09 116.00" xmlns="http://www.w3.org/2000/svg" xmlns:xlink="http://www.w3.org/1999/xlink">
<g id="graph0" class="graph" transform="scale(1 1) rotate(0) translate(4 112)">
<title>%3</title>
<polygon fill="white" stroke="transparent" points="-4,4 -4,-112 352.09,-112 352.09,4 -4,4"/>
<!-- schema -->
<g id="node1" class="node">
<title>schema</title>
<ellipse fill="#848484" stroke="#585858" cx="89.04" cy="-90" rx="89.08" ry="18"/>
<text text-anchor="middle" x="89.04" y="-86.3" font-family="Times,serif" font-size="14.00" fill="white">Types and Fields</text>
</g>
<!-- runtime -->
<g id="node3" class="node">
<title>runtime</title>
<path fill="#782b90" stroke="#585858" d="M241.04,-36C241.04,-36 119.04,-36 119.04,-36 113.04,-36 107.04,-30 107.04,-24 107.04,-24 107.04,-12 107.04,-12 107.04,-6 113.04,0 119.04,0 119.04,0 241.04,0 241.04,0 247.04,0 253.04,-6 253.04,-12 253.04,-12 253.04,-24 253.04,-24 253.04,-30 247.04,-36 241.04,-36"/>
<text text-anchor="middle" x="180.04" y="-14.3" font-family="Times,serif" font-size="14.00" fill="white">GraphQL Runtime</text>
</g>
<!-- schema&#45;&gt;runtime -->
<g id="edge1" class="edge">
<title>schema&#45;&gt;runtime</title>
<path fill="none" stroke="black" d="M110.61,-72.41C122.25,-63.46 136.81,-52.25 149.59,-42.42"/>
<polygon fill="black" stroke="black" points="151.89,-45.07 157.68,-36.2 147.62,-39.52 151.89,-45.07"/>
</g>
<!-- fetchers -->
<g id="node2" class="node">
<title>fetchers</title>
<ellipse fill="#848484" stroke="#585858" cx="272.04" cy="-90" rx="76.09" ry="18"/>
<text text-anchor="middle" x="272.04" y="-86.3" font-family="Times,serif" font-size="14.00" fill="white">Data Fetchers</text>
</g>
<!-- fetchers&#45;&gt;runtime -->
<g id="edge2" class="edge">
<title>fetchers&#45;&gt;runtime</title>
<path fill="none" stroke="black" d="M250.24,-72.41C238.47,-63.46 223.75,-52.25 210.83,-42.42"/>
<polygon fill="black" stroke="black" points="212.73,-39.47 202.65,-36.2 208.49,-45.04 212.73,-39.47"/>
</g>
</g>
</svg>
