<?xml version="1.0" encoding="UTF-8" standalone="no"?>
<!DOCTYPE svg PUBLIC "-//W3C//DTD SVG 1.1//EN"
 "http://www.w3.org/Graphics/SVG/1.1/DTD/svg11.dtd">
<!-- Generated by graphviz version 2.44.0 ()
 -->
<!-- Pages: 1 -->
<svg width="389pt" height="44pt"
 viewBox="0.00 0.00 389.37 44.00" xmlns="http://www.w3.org/2000/svg" xmlns:xlink="http://www.w3.org/1999/xlink">
<g id="graph0" class="graph" transform="scale(1 1) rotate(0) translate(4 40)">
<polygon fill="white" stroke="transparent" points="-4,4 -4,-40 385.37,-40 385.37,4 -4,4"/>
<!-- validation -->
<g id="node1" class="node">
<title>validation</title>
<ellipse fill="#848484" stroke="#585858" cx="57.19" cy="-18" rx="57.39" ry="18"/>
<text text-anchor="middle" x="57.19" y="-14.3" font-family="Times,serif" font-size="14.00" fill="white">Validation</text>
</g>
<!-- execution -->
<g id="node2" class="node">
<title>execution</title>
<ellipse fill="#848484" stroke="#585858" cx="207.58" cy="-18" rx="57.39" ry="18"/>
<text text-anchor="middle" x="207.58" y="-14.3" font-family="Times,serif" font-size="14.00" fill="white">Execution</text>
</g>
<!-- validation&#45;&gt;execution -->
<g id="edge1" class="edge">
<title>validation&#45;&gt;execution</title>
<path fill="none" stroke="black" d="M114.72,-18C122.99,-18 131.57,-18 140.01,-18"/>
<polygon fill="black" stroke="black" points="140.22,-21.5 150.22,-18 140.22,-14.5 140.22,-21.5"/>
</g>
<!-- result -->
<g id="node3" class="node">
<title>result</title>
<ellipse fill="#782b90" stroke="#585858" cx="341.08" cy="-18" rx="40.09" ry="18"/>
<text text-anchor="middle" x="341.08" y="-14.3" font-family="Times,serif" font-size="14.00" fill="white">Result</text>
</g>
<!-- execution&#45;&gt;result -->
<g id="edge2" class="edge">
<title>execution&#45;&gt;result</title>
<path fill="none" stroke="black" d="M265.11,-18C273.53,-18 282.15,-18 290.42,-18"/>
<polygon fill="black" stroke="black" points="290.65,-21.5 300.65,-18 290.65,-14.5 290.65,-21.5"/>
</g>
</g>
</svg>
