<?xml version="1.0" encoding="UTF-8" standalone="no"?>
<!DOCTYPE svg PUBLIC "-//W3C//DTD SVG 1.1//EN"
 "http://www.w3.org/Graphics/SVG/1.1/DTD/svg11.dtd">
<!-- Generated by graphviz version 2.42.3 ()
 -->
<!-- Title: %3 Pages: 1 -->
<svg width="410pt" height="98pt"
 viewBox="0.00 0.00 409.69 98.00" xmlns="http://www.w3.org/2000/svg" xmlns:xlink="http://www.w3.org/1999/xlink">
<g id="graph0" class="graph" transform="scale(1 1) rotate(0) translate(4 94)">
<title>%3</title>
<polygon fill="white" stroke="transparent" points="-4,4 -4,-94 405.69,-94 405.69,4 -4,4"/>
<!-- client -->
<g id="node1" class="node">
<title>client</title>
<ellipse fill="#848484" stroke="#585858" cx="38.35" cy="-45" rx="38.19" ry="18"/>
<text text-anchor="middle" x="38.35" y="-41.3" font-family="Times,serif" font-size="14.00" fill="white">Client</text>
</g>
<!-- inventory -->
<g id="node2" class="node">
<title>inventory</title>
<path fill="#782b90" stroke="#585858" d="M241.69,-90C241.69,-90 124.69,-90 124.69,-90 118.69,-90 112.69,-84 112.69,-78 112.69,-78 112.69,-66 112.69,-66 112.69,-60 118.69,-54 124.69,-54 124.69,-54 241.69,-54 241.69,-54 247.69,-54 253.69,-60 253.69,-66 253.69,-66 253.69,-78 253.69,-78 253.69,-84 247.69,-90 241.69,-90"/>
<text text-anchor="middle" x="183.19" y="-68.3" font-family="Times,serif" font-size="14.00" fill="white">Inventory service</text>
</g>
<!-- client&#45;&gt;inventory -->
<g id="edge1" class="edge">
<title>client&#45;&gt;inventory</title>
<path fill="none" stroke="black" d="M74.29,-51.6C83.03,-53.26 92.75,-55.09 102.7,-56.97"/>
<polygon fill="black" stroke="black" points="102.2,-60.44 112.68,-58.86 103.5,-53.56 102.2,-60.44"/>
</g>
<!-- rating -->
<g id="node3" class="node">
<title>rating</title>
<path fill="#782b90" stroke="#585858" d="M230.69,-36C230.69,-36 135.69,-36 135.69,-36 129.69,-36 123.69,-30 123.69,-24 123.69,-24 123.69,-12 123.69,-12 123.69,-6 129.69,0 135.69,0 135.69,0 230.69,0 230.69,0 236.69,0 242.69,-6 242.69,-12 242.69,-12 242.69,-24 242.69,-24 242.69,-30 236.69,-36 230.69,-36"/>
<text text-anchor="middle" x="183.19" y="-14.3" font-family="Times,serif" font-size="14.00" fill="white">Rating service</text>
</g>
<!-- client&#45;&gt;rating -->
<g id="edge2" class="edge">
<title>client&#45;&gt;rating</title>
<path fill="none" stroke="black" d="M74.29,-38.4C86.25,-36.13 100.08,-33.52 113.77,-30.93"/>
<polygon fill="black" stroke="black" points="114.5,-34.36 123.68,-29.06 113.2,-27.48 114.5,-34.36"/>
</g>
<!-- inventorydb -->
<g id="node4" class="node">
<title>inventorydb</title>
<path fill="#008bb9" stroke="#585858" d="M401.69,-86.73C401.69,-88.53 376.59,-90 345.69,-90 314.79,-90 289.69,-88.53 289.69,-86.73 289.69,-86.73 289.69,-57.27 289.69,-57.27 289.69,-55.47 314.79,-54 345.69,-54 376.59,-54 401.69,-55.47 401.69,-57.27 401.69,-57.27 401.69,-86.73 401.69,-86.73"/>
<path fill="none" stroke="#585858" d="M401.69,-86.73C401.69,-84.92 376.59,-83.45 345.69,-83.45 314.79,-83.45 289.69,-84.92 289.69,-86.73"/>
<text text-anchor="middle" x="345.69" y="-68.3" font-family="Times,serif" font-size="14.00" fill="white">Inventory DB</text>
</g>
<!-- inventory&#45;&gt;inventorydb -->
<g id="edge3" class="edge">
<title>inventory&#45;&gt;inventorydb</title>
<path fill="none" stroke="black" d="M254.12,-72C262.53,-72 271.09,-72 279.43,-72"/>
<polygon fill="black" stroke="black" points="279.47,-75.5 289.47,-72 279.47,-68.5 279.47,-75.5"/>
</g>
<!-- ratingdb -->
<g id="node5" class="node">
<title>ratingdb</title>
<path fill="#008bb9" stroke="#585858" d="M390.69,-32.73C390.69,-34.53 370.52,-36 345.69,-36 320.86,-36 300.69,-34.53 300.69,-32.73 300.69,-32.73 300.69,-3.27 300.69,-3.27 300.69,-1.47 320.86,0 345.69,0 370.52,0 390.69,-1.47 390.69,-3.27 390.69,-3.27 390.69,-32.73 390.69,-32.73"/>
<path fill="none" stroke="#585858" d="M390.69,-32.73C390.69,-30.92 370.52,-29.45 345.69,-29.45 320.86,-29.45 300.69,-30.92 300.69,-32.73"/>
<text text-anchor="middle" x="345.69" y="-14.3" font-family="Times,serif" font-size="14.00" fill="white">Rating DB</text>
</g>
<!-- rating&#45;&gt;ratingdb -->
<g id="edge4" class="edge">
<title>rating&#45;&gt;ratingdb</title>
<path fill="none" stroke="black" d="M243.05,-18C258.53,-18 275.16,-18 290.39,-18"/>
<polygon fill="black" stroke="black" points="290.68,-21.5 300.68,-18 290.68,-14.5 290.68,-21.5"/>
</g>
</g>
</svg>
