<?xml version="1.0" encoding="UTF-8" standalone="no"?>
<!DOCTYPE svg PUBLIC "-//W3C//DTD SVG 1.1//EN"
 "http://www.w3.org/Graphics/SVG/1.1/DTD/svg11.dtd">
<!-- Generated by graphviz version 2.40.1 (0)
 -->
<!-- Title: %3 Pages: 1 -->
<svg width="414pt" height="98pt"
 viewBox="0.00 0.00 413.99 98.00" xmlns="http://www.w3.org/2000/svg" xmlns:xlink="http://www.w3.org/1999/xlink">
<g id="graph0" class="graph" transform="scale(1 1) rotate(0) translate(4 94)">
<title>%3</title>
<polygon fill="#ffffff" stroke="transparent" points="-4,4 -4,-94 409.9931,-94 409.9931,4 -4,4"/>
<!-- client -->
<g id="node1" class="node">
<title>client</title>
<ellipse fill="#848484" stroke="#585858" cx="38.9965" cy="-45" rx="38.9931" ry="18"/>
<text text-anchor="middle" x="38.9965" y="-41.3" font-family="Times,serif" font-size="14.00" fill="#ffffff">Client</text>
</g>
<!-- inventory -->
<g id="node2" class="node">
<title>inventory</title>
<path fill="#782b90" stroke="#585858" d="M244.9931,-90C244.9931,-90 125.9931,-90 125.9931,-90 119.9931,-90 113.9931,-84 113.9931,-78 113.9931,-78 113.9931,-66 113.9931,-66 113.9931,-60 119.9931,-54 125.9931,-54 125.9931,-54 244.9931,-54 244.9931,-54 250.9931,-54 256.9931,-60 256.9931,-66 256.9931,-66 256.9931,-78 256.9931,-78 256.9931,-84 250.9931,-90 244.9931,-90"/>
<text text-anchor="middle" x="185.4931" y="-68.3" font-family="Times,serif" font-size="14.00" fill="#ffffff">Inventory service</text>
</g>
<!-- client&#45;&gt;inventory -->
<g id="edge1" class="edge">
<title>client&#45;&gt;inventory</title>
<path fill="none" stroke="#000000" d="M75.5859,-51.7436C84.3574,-53.3602 94.0738,-55.151 103.9947,-56.9795"/>
<polygon fill="#000000" stroke="#000000" points="103.4876,-60.4449 113.9564,-58.8155 104.7564,-53.5608 103.4876,-60.4449"/>
</g>
<!-- rating -->
<g id="node3" class="node">
<title>rating</title>
<path fill="#782b90" stroke="#585858" d="M233.4931,-36C233.4931,-36 137.4931,-36 137.4931,-36 131.4931,-36 125.4931,-30 125.4931,-24 125.4931,-24 125.4931,-12 125.4931,-12 125.4931,-6 131.4931,0 137.4931,0 137.4931,0 233.4931,0 233.4931,0 239.4931,0 245.4931,-6 245.4931,-12 245.4931,-12 245.4931,-24 245.4931,-24 245.4931,-30 239.4931,-36 233.4931,-36"/>
<text text-anchor="middle" x="185.4931" y="-14.3" font-family="Times,serif" font-size="14.00" fill="#ffffff">Rating service</text>
</g>
<!-- client&#45;&gt;rating -->
<g id="edge2" class="edge">
<title>client&#45;&gt;rating</title>
<path fill="none" stroke="#000000" d="M75.5859,-38.2564C87.7248,-36.0192 101.6735,-33.4483 115.4694,-30.9057"/>
<polygon fill="#000000" stroke="#000000" points="116.2599,-34.319 125.4599,-29.0644 114.9911,-27.435 116.2599,-34.319"/>
</g>
<!-- inventorydb -->
<g id="node4" class="node">
<title>inventorydb</title>
<path fill="#008bb9" stroke="#585858" d="M405.9931,-86.7273C405.9931,-88.5331 380.6689,-90 349.4931,-90 318.3173,-90 292.9931,-88.5331 292.9931,-86.7273 292.9931,-86.7273 292.9931,-57.2727 292.9931,-57.2727 292.9931,-55.4669 318.3173,-54 349.4931,-54 380.6689,-54 405.9931,-55.4669 405.9931,-57.2727 405.9931,-57.2727 405.9931,-86.7273 405.9931,-86.7273"/>
<path fill="none" stroke="#585858" d="M405.9931,-86.7273C405.9931,-84.9214 380.6689,-83.4545 349.4931,-83.4545 318.3173,-83.4545 292.9931,-84.9214 292.9931,-86.7273"/>
<text text-anchor="middle" x="349.4931" y="-68.3" font-family="Times,serif" font-size="14.00" fill="#ffffff">Inventory DB</text>
</g>
<!-- inventory&#45;&gt;inventorydb -->
<g id="edge3" class="edge">
<title>inventory&#45;&gt;inventorydb</title>
<path fill="none" stroke="#000000" d="M257.4259,-72C265.8696,-72 274.4578,-72 282.8252,-72"/>
<polygon fill="#000000" stroke="#000000" points="282.8976,-75.5001 292.8975,-72 282.8975,-68.5001 282.8976,-75.5001"/>
</g>
<!-- ratingdb -->
<g id="node5" class="node">
<title>ratingdb</title>
<path fill="#008bb9" stroke="#585858" d="M394.4931,-32.7273C394.4931,-34.5331 374.3234,-36 349.4931,-36 324.6628,-36 304.4931,-34.5331 304.4931,-32.7273 304.4931,-32.7273 304.4931,-3.2727 304.4931,-3.2727 304.4931,-1.4669 324.6628,0 349.4931,0 374.3234,0 394.4931,-1.4669 394.4931,-3.2727 394.4931,-3.2727 394.4931,-32.7273 394.4931,-32.7273"/>
<path fill="none" stroke="#585858" d="M394.4931,-32.7273C394.4931,-30.9214 374.3234,-29.4545 349.4931,-29.4545 324.6628,-29.4545 304.4931,-30.9214 304.4931,-32.7273"/>
<text text-anchor="middle" x="349.4931" y="-14.3" font-family="Times,serif" font-size="14.00" fill="#ffffff">Rating DB</text>
</g>
<!-- rating&#45;&gt;ratingdb -->
<g id="edge4" class="edge">
<title>rating&#45;&gt;ratingdb</title>
<path fill="none" stroke="#000000" d="M245.6294,-18C261.5274,-18 278.6082,-18 294.2342,-18"/>
<polygon fill="#000000" stroke="#000000" points="294.2656,-21.5001 304.2656,-18 294.2656,-14.5001 294.2656,-21.5001"/>
</g>
</g>
</svg>
