<?xml version="1.0" encoding="UTF-8" standalone="no"?>
<!DOCTYPE svg PUBLIC "-//W3C//DTD SVG 1.1//EN"
 "http://www.w3.org/Graphics/SVG/1.1/DTD/svg11.dtd">
<!-- Generated by graphviz version 2.40.1 (0)
 -->
<!-- Title: %3 Pages: 1 -->
<svg width="524pt" height="129pt"
 viewBox="0.00 0.00 524.49 129.00" xmlns="http://www.w3.org/2000/svg" xmlns:xlink="http://www.w3.org/1999/xlink">
<g id="graph0" class="graph" transform="scale(1 1) rotate(0) translate(4 125)">
<title>%3</title>
<polygon fill="#ffffff" stroke="transparent" points="-4,4 -4,-125 520.489,-125 520.489,4 -4,4"/>
<!-- client -->
<g id="node1" class="node">
<title>client</title>
<ellipse fill="#848484" stroke="#585858" cx="61.7445" cy="-76" rx="61.99" ry="18"/>
<text text-anchor="middle" x="61.7445" y="-72.3" font-family="Times,serif" font-size="14.00" fill="#ffffff">Web Client</text>
</g>
<!-- gateway -->
<g id="node2" class="node">
<title>gateway</title>
<path fill="none" stroke="#782b90" stroke-width="2" d="M325.489,-97.5C325.489,-97.5 171.489,-97.5 171.489,-97.5 165.489,-97.5 159.489,-91.5 159.489,-85.5 159.489,-85.5 159.489,-66.5 159.489,-66.5 159.489,-60.5 165.489,-54.5 171.489,-54.5 171.489,-54.5 325.489,-54.5 325.489,-54.5 331.489,-54.5 337.489,-60.5 337.489,-66.5 337.489,-66.5 337.489,-85.5 337.489,-85.5 337.489,-91.5 331.489,-97.5 325.489,-97.5"/>
<text text-anchor="middle" x="248.489" y="-70" font-family="Times,serif" font-size="25.00" fill="#782b90">API Gateway</text>
</g>
<!-- client&#45;&gt;gateway -->
<g id="edge1" class="edge">
<title>client&#45;&gt;gateway</title>
<path fill="none" stroke="#000000" d="M123.6684,-76C131.9099,-76 140.5215,-76 149.2016,-76"/>
<polygon fill="#000000" stroke="#000000" points="149.4047,-79.5001 159.4046,-76 149.4046,-72.5001 149.4047,-79.5001"/>
</g>
<!-- inventory -->
<g id="node3" class="node">
<title>inventory</title>
<path fill="#782b90" stroke="#585858" d="M504.489,-121C504.489,-121 385.489,-121 385.489,-121 379.489,-121 373.489,-115 373.489,-109 373.489,-109 373.489,-97 373.489,-97 373.489,-91 379.489,-85 385.489,-85 385.489,-85 504.489,-85 504.489,-85 510.489,-85 516.489,-91 516.489,-97 516.489,-97 516.489,-109 516.489,-109 516.489,-115 510.489,-121 504.489,-121"/>
<text text-anchor="middle" x="444.989" y="-99.3" font-family="Times,serif" font-size="14.00" fill="#ffffff">Inventory service</text>
</g>
<!-- gateway&#45;&gt;inventory -->
<g id="edge4" class="edge">
<title>gateway&#45;&gt;inventory</title>
<path fill="none" stroke="#000000" d="M337.5401,-88.236C346.1524,-89.4194 354.8599,-90.6158 363.3946,-91.7886"/>
<polygon fill="#000000" stroke="#000000" points="362.9349,-95.2582 373.3183,-93.1521 363.8878,-88.3233 362.9349,-95.2582"/>
</g>
<!-- rating -->
<g id="node4" class="node">
<title>rating</title>
<path fill="#782b90" stroke="#585858" d="M492.989,-67C492.989,-67 396.989,-67 396.989,-67 390.989,-67 384.989,-61 384.989,-55 384.989,-55 384.989,-43 384.989,-43 384.989,-37 390.989,-31 396.989,-31 396.989,-31 492.989,-31 492.989,-31 498.989,-31 504.989,-37 504.989,-43 504.989,-43 504.989,-55 504.989,-55 504.989,-61 498.989,-67 492.989,-67"/>
<text text-anchor="middle" x="444.989" y="-45.3" font-family="Times,serif" font-size="14.00" fill="#ffffff">Rating service</text>
</g>
<!-- gateway&#45;&gt;rating -->
<g id="edge3" class="edge">
<title>gateway&#45;&gt;rating</title>
<path fill="none" stroke="#000000" d="M337.5401,-63.764C350.0747,-62.0417 362.8107,-60.2917 374.9225,-58.6275"/>
<polygon fill="#000000" stroke="#000000" points="375.501,-62.081 384.9314,-57.2522 374.548,-55.1461 375.501,-62.081"/>
</g>
<!-- gatewaydb -->
<g id="node5" class="node">
<title>gatewaydb</title>
<path fill="#008bb9" stroke="#585858" d="M310.989,-32.7273C310.989,-34.5331 282.9755,-36 248.489,-36 214.0025,-36 185.989,-34.5331 185.989,-32.7273 185.989,-32.7273 185.989,-3.2727 185.989,-3.2727 185.989,-1.4669 214.0025,0 248.489,0 282.9755,0 310.989,-1.4669 310.989,-3.2727 310.989,-3.2727 310.989,-32.7273 310.989,-32.7273"/>
<path fill="none" stroke="#585858" d="M310.989,-32.7273C310.989,-30.9214 282.9755,-29.4545 248.489,-29.4545 214.0025,-29.4545 185.989,-30.9214 185.989,-32.7273"/>
<text text-anchor="middle" x="248.489" y="-14.3" font-family="Times,serif" font-size="14.00" fill="#ffffff">MusicStore DB</text>
</g>
<!-- gateway&#45;&gt;gatewaydb -->
<g id="edge2" class="edge">
<title>gateway&#45;&gt;gatewaydb</title>
<path fill="none" stroke="#000000" d="M248.489,-54.1934C248.489,-51.5584 248.489,-48.9234 248.489,-46.2885"/>
<polygon fill="#000000" stroke="#000000" points="251.9891,-46.125 248.489,-36.125 244.9891,-46.125 251.9891,-46.125"/>
</g>
</g>
</svg>
