<?xml version="1.0" encoding="UTF-8" standalone="no"?>
<!DOCTYPE svg PUBLIC "-//W3C//DTD SVG 1.1//EN"
 "http://www.w3.org/Graphics/SVG/1.1/DTD/svg11.dtd">
<!-- Generated by graphviz version 2.42.3 ()
 -->
<!-- Title: %3 Pages: 1 -->
<svg width="524pt" height="129pt"
 viewBox="0.00 0.00 524.49 129.00" xmlns="http://www.w3.org/2000/svg" xmlns:xlink="http://www.w3.org/1999/xlink">
<g id="graph0" class="graph" transform="scale(1 1) rotate(0) translate(4 125)">
<title>%3</title>
<polygon fill="white" stroke="transparent" points="-4,4 -4,-125 520.49,-125 520.49,4 -4,4"/>
<!-- client -->
<g id="node1" class="node">
<title>client</title>
<ellipse fill="#848484" stroke="#585858" cx="61.74" cy="-76" rx="61.99" ry="18"/>
<text text-anchor="middle" x="61.74" y="-72.3" font-family="Times,serif" font-size="14.00" fill="white">Web Client</text>
</g>
<!-- gateway -->
<g id="node2" class="node">
<title>gateway</title>
<path fill="none" stroke="#782b90" stroke-width="2" d="M327.49,-97.5C327.49,-97.5 171.49,-97.5 171.49,-97.5 165.49,-97.5 159.49,-91.5 159.49,-85.5 159.49,-85.5 159.49,-66.5 159.49,-66.5 159.49,-60.5 165.49,-54.5 171.49,-54.5 171.49,-54.5 327.49,-54.5 327.49,-54.5 333.49,-54.5 339.49,-60.5 339.49,-66.5 339.49,-66.5 339.49,-85.5 339.49,-85.5 339.49,-91.5 333.49,-97.5 327.49,-97.5"/>
<text text-anchor="middle" x="249.49" y="-70" font-family="Times,serif" font-size="25.00" fill="#782b90">API Gateway</text>
</g>
<!-- client&#45;&gt;gateway -->
<g id="edge1" class="edge">
<title>client&#45;&gt;gateway</title>
<path fill="none" stroke="black" d="M123.56,-76C131.78,-76 140.37,-76 149.04,-76"/>
<polygon fill="black" stroke="black" points="149.24,-79.5 159.24,-76 149.24,-72.5 149.24,-79.5"/>
</g>
<!-- inventory -->
<g id="node3" class="node">
<title>inventory</title>
<path fill="#782b90" stroke="#585858" d="M504.49,-121C504.49,-121 387.49,-121 387.49,-121 381.49,-121 375.49,-115 375.49,-109 375.49,-109 375.49,-97 375.49,-97 375.49,-91 381.49,-85 387.49,-85 387.49,-85 504.49,-85 504.49,-85 510.49,-85 516.49,-91 516.49,-97 516.49,-97 516.49,-109 516.49,-109 516.49,-115 510.49,-121 504.49,-121"/>
<text text-anchor="middle" x="445.99" y="-99.3" font-family="Times,serif" font-size="14.00" fill="white">Inventory service</text>
</g>
<!-- gateway&#45;&gt;inventory -->
<g id="edge4" class="edge">
<title>gateway&#45;&gt;inventory</title>
<path fill="none" stroke="black" d="M339.77,-88.39C348.29,-89.58 356.89,-90.77 365.31,-91.94"/>
<polygon fill="black" stroke="black" points="365.09,-95.44 375.47,-93.35 366.05,-88.51 365.09,-95.44"/>
</g>
<!-- rating -->
<g id="node4" class="node">
<title>rating</title>
<path fill="#782b90" stroke="#585858" d="M493.49,-67C493.49,-67 398.49,-67 398.49,-67 392.49,-67 386.49,-61 386.49,-55 386.49,-55 386.49,-43 386.49,-43 386.49,-37 392.49,-31 398.49,-31 398.49,-31 493.49,-31 493.49,-31 499.49,-31 505.49,-37 505.49,-43 505.49,-43 505.49,-55 505.49,-55 505.49,-61 499.49,-67 493.49,-67"/>
<text text-anchor="middle" x="445.99" y="-45.3" font-family="Times,serif" font-size="14.00" fill="white">Rating service</text>
</g>
<!-- gateway&#45;&gt;rating -->
<g id="edge3" class="edge">
<title>gateway&#45;&gt;rating</title>
<path fill="none" stroke="black" d="M339.77,-63.61C351.97,-61.91 364.35,-60.19 376.11,-58.56"/>
<polygon fill="black" stroke="black" points="376.85,-61.99 386.27,-57.15 375.89,-55.06 376.85,-61.99"/>
</g>
<!-- gatewaydb -->
<g id="node5" class="node">
<title>gatewaydb</title>
<path fill="#008bb9" stroke="#585858" d="M311.99,-32.73C311.99,-34.53 283.98,-36 249.49,-36 215,-36 186.99,-34.53 186.99,-32.73 186.99,-32.73 186.99,-3.27 186.99,-3.27 186.99,-1.47 215,0 249.49,0 283.98,0 311.99,-1.47 311.99,-3.27 311.99,-3.27 311.99,-32.73 311.99,-32.73"/>
<path fill="none" stroke="#585858" d="M311.99,-32.73C311.99,-30.92 283.98,-29.45 249.49,-29.45 215,-29.45 186.99,-30.92 186.99,-32.73"/>
<text text-anchor="middle" x="249.49" y="-14.3" font-family="Times,serif" font-size="14.00" fill="white">MusicStore DB</text>
</g>
<!-- gateway&#45;&gt;gatewaydb -->
<g id="edge2" class="edge">
<title>gateway&#45;&gt;gatewaydb</title>
<path fill="none" stroke="black" d="M249.49,-54.19C249.49,-51.56 249.49,-48.92 249.49,-46.29"/>
<polygon fill="black" stroke="black" points="252.99,-46.12 249.49,-36.12 245.99,-46.13 252.99,-46.12"/>
</g>
</g>
</svg>
