<?xml version="1.0" encoding="UTF-8" standalone="no"?>
<!DOCTYPE svg PUBLIC "-//W3C//DTD SVG 1.1//EN"
 "http://www.w3.org/Graphics/SVG/1.1/DTD/svg11.dtd">
<!-- Generated by graphviz version 2.40.1 (0)
 -->
<!-- Title: %3 Pages: 1 -->
<svg width="560pt" height="125pt"
 viewBox="0.00 0.00 559.99 125.00" xmlns="http://www.w3.org/2000/svg" xmlns:xlink="http://www.w3.org/1999/xlink">
<g id="graph0" class="graph" transform="scale(1 1) rotate(0) translate(4 121)">
<title>%3</title>
<polygon fill="#ffffff" stroke="transparent" points="-4,4 -4,-121 555.9931,-121 555.9931,4 -4,4"/>
<!-- client -->
<g id="node1" class="node">
<title>client</title>
<ellipse fill="#848484" stroke="#585858" cx="38.9965" cy="-72" rx="38.9931" ry="18"/>
<text text-anchor="middle" x="38.9965" y="-68.3" font-family="Times,serif" font-size="14.00" fill="#ffffff">Client</text>
</g>
<!-- gateway -->
<g id="node2" class="node">
<title>gateway</title>
<path fill="#782b90" stroke="#585858" d="M211.9931,-90C211.9931,-90 125.9931,-90 125.9931,-90 119.9931,-90 113.9931,-84 113.9931,-78 113.9931,-78 113.9931,-66 113.9931,-66 113.9931,-60 119.9931,-54 125.9931,-54 125.9931,-54 211.9931,-54 211.9931,-54 217.9931,-54 223.9931,-60 223.9931,-66 223.9931,-66 223.9931,-78 223.9931,-78 223.9931,-84 217.9931,-90 211.9931,-90"/>
<text text-anchor="middle" x="168.9931" y="-68.3" font-family="Times,serif" font-size="14.00" fill="#ffffff">API Gateway</text>
</g>
<!-- client&#45;&gt;gateway -->
<g id="edge1" class="edge">
<title>client&#45;&gt;gateway</title>
<path fill="none" stroke="#000000" d="M77.9998,-72C86.0628,-72 94.7649,-72 103.4792,-72"/>
<polygon fill="#000000" stroke="#000000" points="103.6773,-75.5001 113.6773,-72 103.6773,-68.5001 103.6773,-75.5001"/>
</g>
<!-- inventory -->
<g id="node3" class="node">
<title>inventory</title>
<path fill="#782b90" stroke="#585858" d="M390.9931,-117C390.9931,-117 271.9931,-117 271.9931,-117 265.9931,-117 259.9931,-111 259.9931,-105 259.9931,-105 259.9931,-93 259.9931,-93 259.9931,-87 265.9931,-81 271.9931,-81 271.9931,-81 390.9931,-81 390.9931,-81 396.9931,-81 402.9931,-87 402.9931,-93 402.9931,-93 402.9931,-105 402.9931,-105 402.9931,-111 396.9931,-117 390.9931,-117"/>
<text text-anchor="middle" x="331.4931" y="-95.3" font-family="Times,serif" font-size="14.00" fill="#ffffff">Inventory service</text>
</g>
<!-- gateway&#45;&gt;inventory -->
<g id="edge4" class="edge">
<title>gateway&#45;&gt;inventory</title>
<path fill="none" stroke="#000000" d="M224.0082,-81.141C232.3705,-82.5304 241.1481,-83.9888 249.9306,-85.4481"/>
<polygon fill="#000000" stroke="#000000" points="249.3881,-88.9058 259.8265,-87.0923 250.5355,-82.0005 249.3881,-88.9058"/>
</g>
<!-- rating -->
<g id="node4" class="node">
<title>rating</title>
<path fill="#782b90" stroke="#585858" d="M379.4931,-63C379.4931,-63 283.4931,-63 283.4931,-63 277.4931,-63 271.4931,-57 271.4931,-51 271.4931,-51 271.4931,-39 271.4931,-39 271.4931,-33 277.4931,-27 283.4931,-27 283.4931,-27 379.4931,-27 379.4931,-27 385.4931,-27 391.4931,-33 391.4931,-39 391.4931,-39 391.4931,-51 391.4931,-51 391.4931,-57 385.4931,-63 379.4931,-63"/>
<text text-anchor="middle" x="331.4931" y="-41.3" font-family="Times,serif" font-size="14.00" fill="#ffffff">Rating service</text>
</g>
<!-- gateway&#45;&gt;rating -->
<g id="edge3" class="edge">
<title>gateway&#45;&gt;rating</title>
<path fill="none" stroke="#000000" d="M224.0082,-62.859C235.9959,-60.8672 248.8372,-58.7336 261.3228,-56.6591"/>
<polygon fill="#000000" stroke="#000000" points="261.9456,-60.1037 271.2366,-55.0118 260.7982,-53.1983 261.9456,-60.1037"/>
</g>
<!-- gatewaydb -->
<g id="node5" class="node">
<title>gatewaydb</title>
<path fill="#008bb9" stroke="#585858" d="M221.4931,-32.7273C221.4931,-34.5331 197.9617,-36 168.9931,-36 140.0244,-36 116.4931,-34.5331 116.4931,-32.7273 116.4931,-32.7273 116.4931,-3.2727 116.4931,-3.2727 116.4931,-1.4669 140.0244,0 168.9931,0 197.9617,0 221.4931,-1.4669 221.4931,-3.2727 221.4931,-3.2727 221.4931,-32.7273 221.4931,-32.7273"/>
<path fill="none" stroke="#585858" d="M221.4931,-32.7273C221.4931,-30.9214 197.9617,-29.4545 168.9931,-29.4545 140.0244,-29.4545 116.4931,-30.9214 116.4931,-32.7273"/>
<text text-anchor="middle" x="168.9931" y="-14.3" font-family="Times,serif" font-size="14.00" fill="#ffffff">Gateway DB</text>
</g>
<!-- gateway&#45;&gt;gatewaydb -->
<g id="edge2" class="edge">
<title>gateway&#45;&gt;gatewaydb</title>
<path fill="none" stroke="#000000" d="M168.9931,-53.7902C168.9931,-51.3082 168.9931,-48.8262 168.9931,-46.3443"/>
<polygon fill="#000000" stroke="#000000" points="172.4932,-46.1406 168.9931,-36.1406 165.4932,-46.1407 172.4932,-46.1406"/>
</g>
<!-- inventorydb -->
<g id="node6" class="node">
<title>inventorydb</title>
<path fill="#008bb9" stroke="#585858" d="M551.9931,-113.7273C551.9931,-115.5331 526.6689,-117 495.4931,-117 464.3173,-117 438.9931,-115.5331 438.9931,-113.7273 438.9931,-113.7273 438.9931,-84.2727 438.9931,-84.2727 438.9931,-82.4669 464.3173,-81 495.4931,-81 526.6689,-81 551.9931,-82.4669 551.9931,-84.2727 551.9931,-84.2727 551.9931,-113.7273 551.9931,-113.7273"/>
<path fill="none" stroke="#585858" d="M551.9931,-113.7273C551.9931,-111.9214 526.6689,-110.4545 495.4931,-110.4545 464.3173,-110.4545 438.9931,-111.9214 438.9931,-113.7273"/>
<text text-anchor="middle" x="495.4931" y="-95.3" font-family="Times,serif" font-size="14.00" fill="#ffffff">Inventory DB</text>
</g>
<!-- inventory&#45;&gt;inventorydb -->
<g id="edge5" class="edge">
<title>inventory&#45;&gt;inventorydb</title>
<path fill="none" stroke="#000000" d="M403.4259,-99C411.8696,-99 420.4578,-99 428.8252,-99"/>
<polygon fill="#000000" stroke="#000000" points="428.8976,-102.5001 438.8975,-99 428.8975,-95.5001 428.8976,-102.5001"/>
</g>
<!-- ratingdb -->
<g id="node7" class="node">
<title>ratingdb</title>
<path fill="#008bb9" stroke="#585858" d="M540.4931,-59.7273C540.4931,-61.5331 520.3234,-63 495.4931,-63 470.6628,-63 450.4931,-61.5331 450.4931,-59.7273 450.4931,-59.7273 450.4931,-30.2727 450.4931,-30.2727 450.4931,-28.4669 470.6628,-27 495.4931,-27 520.3234,-27 540.4931,-28.4669 540.4931,-30.2727 540.4931,-30.2727 540.4931,-59.7273 540.4931,-59.7273"/>
<path fill="none" stroke="#585858" d="M540.4931,-59.7273C540.4931,-57.9214 520.3234,-56.4545 495.4931,-56.4545 470.6628,-56.4545 450.4931,-57.9214 450.4931,-59.7273"/>
<text text-anchor="middle" x="495.4931" y="-41.3" font-family="Times,serif" font-size="14.00" fill="#ffffff">Rating DB</text>
</g>
<!-- rating&#45;&gt;ratingdb -->
<g id="edge6" class="edge">
<title>rating&#45;&gt;ratingdb</title>
<path fill="none" stroke="#000000" d="M391.6294,-45C407.5274,-45 424.6082,-45 440.2342,-45"/>
<polygon fill="#000000" stroke="#000000" points="440.2656,-48.5001 450.2656,-45 440.2656,-41.5001 440.2656,-48.5001"/>
</g>
</g>
</svg>
