<?xml version="1.0" encoding="UTF-8" standalone="no"?>
<!DOCTYPE svg PUBLIC "-//W3C//DTD SVG 1.1//EN"
 "http://www.w3.org/Graphics/SVG/1.1/DTD/svg11.dtd">
<!-- Generated by graphviz version 2.40.1 (0)
 -->
<!-- Title: %3 Pages: 1 -->
<svg width="358pt" height="116pt"
 viewBox="0.00 0.00 358.39 116.00" xmlns="http://www.w3.org/2000/svg" xmlns:xlink="http://www.w3.org/1999/xlink">
<g id="graph0" class="graph" transform="scale(1 1) rotate(0) translate(4 112)">
<title>%3</title>
<polygon fill="#ffffff" stroke="transparent" points="-4,4 -4,-112 354.3852,-112 354.3852,4 -4,4"/>
<!-- schema -->
<g id="node1" class="node">
<title>schema</title>
<ellipse fill="#848484" stroke="#585858" cx="89.692" cy="-90" rx="89.8845" ry="18"/>
<text text-anchor="middle" x="89.692" y="-86.3" font-family="Times,serif" font-size="14.00" fill="#ffffff">Types and Fields</text>
</g>
<!-- runtime -->
<g id="node3" class="node">
<title>runtime</title>
<path fill="#782b90" stroke="#585858" d="M243.692,-36C243.692,-36 119.692,-36 119.692,-36 113.692,-36 107.692,-30 107.692,-24 107.692,-24 107.692,-12 107.692,-12 107.692,-6 113.692,0 119.692,0 119.692,0 243.692,0 243.692,0 249.692,0 255.692,-6 255.692,-12 255.692,-12 255.692,-24 255.692,-24 255.692,-30 249.692,-36 243.692,-36"/>
<text text-anchor="middle" x="181.692" y="-14.3" font-family="Times,serif" font-size="14.00" fill="#ffffff">GraphQL Runtime</text>
</g>
<!-- schema&#45;&gt;runtime -->
<g id="edge1" class="edge">
<title>schema&#45;&gt;runtime</title>
<path fill="none" stroke="#000000" d="M112.4336,-72.2022C123.957,-63.1839 138.1231,-52.0975 150.6345,-42.3059"/>
<polygon fill="#000000" stroke="#000000" points="152.8551,-45.0125 158.5731,-36.0931 148.5409,-39.5 152.8551,-45.0125"/>
</g>
<!-- fetchers -->
<g id="node2" class="node">
<title>fetchers</title>
<ellipse fill="#848484" stroke="#585858" cx="273.692" cy="-90" rx="76.8869" ry="18"/>
<text text-anchor="middle" x="273.692" y="-86.3" font-family="Times,serif" font-size="14.00" fill="#ffffff">Data Fetchers</text>
</g>
<!-- fetchers&#45;&gt;runtime -->
<g id="edge2" class="edge">
<title>fetchers&#45;&gt;runtime</title>
<path fill="none" stroke="#000000" d="M251.4214,-72.5708C239.8176,-63.4896 225.4396,-52.2372 212.7595,-42.3137"/>
<polygon fill="#000000" stroke="#000000" points="214.7505,-39.4274 204.7184,-36.0206 210.4363,-44.94 214.7505,-39.4274"/>
</g>
</g>
</svg>
