<?xml version="1.0" encoding="UTF-8" standalone="no"?>
<!DOCTYPE svg PUBLIC "-//W3C//DTD SVG 1.1//EN"
 "http://www.w3.org/Graphics/SVG/1.1/DTD/svg11.dtd">
<!-- Generated by graphviz version 2.40.1 (0)
 -->
<!-- Title: %3 Pages: 1 -->
<svg width="391pt" height="44pt"
 viewBox="0.00 0.00 390.67 44.00" xmlns="http://www.w3.org/2000/svg" xmlns:xlink="http://www.w3.org/1999/xlink">
<g id="graph0" class="graph" transform="scale(1 1) rotate(0) translate(4 40)">
<title>%3</title>
<polygon fill="#ffffff" stroke="transparent" points="-4,4 -4,-40 386.6724,-40 386.6724,4 -4,4"/>
<!-- validation -->
<g id="node1" class="node">
<title>validation</title>
<ellipse fill="#848484" stroke="#585858" cx="57.1949" cy="-18" rx="57.3905" ry="18"/>
<text text-anchor="middle" x="57.1949" y="-14.3" font-family="Times,serif" font-size="14.00" fill="#ffffff">Validation</text>
</g>
<!-- execution -->
<g id="node2" class="node">
<title>execution</title>
<ellipse fill="#848484" stroke="#585858" cx="208.2347" cy="-18" rx="57.6901" ry="18"/>
<text text-anchor="middle" x="208.2347" y="-14.3" font-family="Times,serif" font-size="14.00" fill="#ffffff">Execution</text>
</g>
<!-- validation&#45;&gt;execution -->
<g id="edge1" class="edge">
<title>validation&#45;&gt;execution</title>
<path fill="none" stroke="#000000" d="M114.7275,-18C123.0251,-18 131.6303,-18 140.1099,-18"/>
<polygon fill="#000000" stroke="#000000" points="140.3618,-21.5001 150.3618,-18 140.3618,-14.5001 140.3618,-21.5001"/>
</g>
<!-- result -->
<g id="node3" class="node">
<title>result</title>
<ellipse fill="#782b90" stroke="#585858" cx="342.376" cy="-18" rx="40.0939" ry="18"/>
<text text-anchor="middle" x="342.376" y="-14.3" font-family="Times,serif" font-size="14.00" fill="#ffffff">Result</text>
</g>
<!-- execution&#45;&gt;result -->
<g id="edge2" class="edge">
<title>execution&#45;&gt;result</title>
<path fill="none" stroke="#000000" d="M266.2909,-18C274.8486,-18 283.6057,-18 291.9912,-18"/>
<polygon fill="#000000" stroke="#000000" points="291.9971,-21.5001 301.9971,-18 291.997,-14.5001 291.9971,-21.5001"/>
</g>
</g>
</svg>
